<svg xmlns="http://www.w3.org/2000/svg" xmlns:xlink="http://www.w3.org/1999/xlink" width="80" zoomAndPan="magnify" viewBox="0 0 60 37.5" height="50" preserveAspectRatio="xMidYMid meet" version="1.0"><defs><g/><clipPath id="d3f27fd405"><path d="M 0.394531 0 L 59.605469 0 L 59.605469 37.007812 L 0.394531 37.007812 Z M 0.394531 0 " clip-rule="nonzero"/></clipPath><clipPath id="3f0f4b0f66"><path d="M 0.472656 4.613281 L 59.527344 4.613281 L 59.527344 32.390625 L 0.472656 32.390625 Z M 0.472656 4.613281 " clip-rule="nonzero"/></clipPath><clipPath id="d136df92d0"><path d="M 27.246094 12.335938 L 48.695312 12.335938 L 48.695312 20.644531 L 27.246094 20.644531 Z M 27.246094 12.335938 " clip-rule="nonzero"/></clipPath></defs><g clip-path="url(#d3f27fd405)"><path fill="#ffffff" d="M 0.394531 0 L 59.605469 0 L 59.605469 44.40625 L 0.394531 44.40625 Z M 0.394531 0 " fill-opacity="1" fill-rule="nonzero"/><path fill="#ffffff" d="M 0.394531 0 L 59.605469 0 L 59.605469 37.007812 L 0.394531 37.007812 Z M 0.394531 0 " fill-opacity="1" fill-rule="nonzero"/><path fill="#42666a" d="M 0.394531 0 L 59.605469 0 L 59.605469 37.007812 L 0.394531 37.007812 Z M 0.394531 0 " fill-opacity="1" fill-rule="nonzero"/></g><g clip-path="url(#3f0f4b0f66)"><path fill="#ffffff" d="M 0.472656 4.613281 L 59.550781 4.613281 L 59.550781 32.382812 L 0.472656 32.382812 Z M 0.472656 4.613281 " fill-opacity="1" fill-rule="nonzero"/></g><g clip-path="url(#d136df92d0)"><path fill="#42666a" d="M 27.246094 12.335938 L 48.707031 12.335938 L 48.707031 20.589844 L 27.246094 20.589844 Z M 27.246094 12.335938 " fill-opacity="1" fill-rule="nonzero"/></g><g fill="#ffffff" fill-opacity="1"><g transform="translate(27.675753, 18.880278)"><g><path d="M 3.921875 -3.578125 L 3.40625 -3.578125 L 3.28125 -4.296875 C 3.164062 -4.390625 3.019531 -4.460938 2.84375 -4.515625 C 2.675781 -4.578125 2.476562 -4.609375 2.25 -4.609375 C 1.882812 -4.609375 1.601562 -4.53125 1.40625 -4.375 C 1.207031 -4.21875 1.109375 -4.015625 1.109375 -3.765625 C 1.109375 -3.546875 1.207031 -3.363281 1.40625 -3.21875 C 1.613281 -3.070312 1.9375 -2.941406 2.375 -2.828125 C 2.914062 -2.691406 3.320312 -2.492188 3.59375 -2.234375 C 3.875 -1.984375 4.015625 -1.664062 4.015625 -1.28125 C 4.015625 -0.875 3.847656 -0.546875 3.515625 -0.296875 C 3.179688 -0.046875 2.742188 0.078125 2.203125 0.078125 C 1.816406 0.078125 1.46875 0.015625 1.15625 -0.109375 C 0.851562 -0.242188 0.609375 -0.414062 0.421875 -0.625 L 0.421875 -1.5625 L 0.9375 -1.5625 L 1.078125 -0.84375 C 1.203125 -0.726562 1.351562 -0.632812 1.53125 -0.5625 C 1.71875 -0.5 1.941406 -0.46875 2.203125 -0.46875 C 2.546875 -0.46875 2.816406 -0.539062 3.015625 -0.6875 C 3.222656 -0.832031 3.328125 -1.03125 3.328125 -1.28125 C 3.328125 -1.507812 3.238281 -1.703125 3.0625 -1.859375 C 2.882812 -2.015625 2.578125 -2.148438 2.140625 -2.265625 C 1.597656 -2.390625 1.175781 -2.578125 0.875 -2.828125 C 0.570312 -3.078125 0.421875 -3.390625 0.421875 -3.765625 C 0.421875 -4.160156 0.585938 -4.488281 0.921875 -4.75 C 1.265625 -5.019531 1.707031 -5.15625 2.25 -5.15625 C 2.601562 -5.15625 2.925781 -5.09375 3.21875 -4.96875 C 3.507812 -4.84375 3.742188 -4.691406 3.921875 -4.515625 Z M 3.921875 -3.578125 "/></g></g></g><g fill="#ffffff" fill-opacity="1"><g transform="translate(32.022885, 18.880278)"><g><path d="M 0.171875 -0.4375 L 0.75 -0.53125 L 0.75 -3.234375 L 0.171875 -3.328125 L 0.171875 -3.765625 L 1.359375 -3.765625 L 1.40625 -3.28125 C 1.53125 -3.457031 1.6875 -3.59375 1.875 -3.6875 C 2.0625 -3.789062 2.28125 -3.84375 2.53125 -3.84375 C 2.78125 -3.84375 2.992188 -3.785156 3.171875 -3.671875 C 3.359375 -3.554688 3.5 -3.378906 3.59375 -3.140625 C 3.707031 -3.359375 3.859375 -3.53125 4.046875 -3.65625 C 4.242188 -3.78125 4.472656 -3.84375 4.734375 -3.84375 C 5.128906 -3.84375 5.4375 -3.707031 5.65625 -3.4375 C 5.875 -3.175781 5.984375 -2.78125 5.984375 -2.25 L 5.984375 -0.53125 L 6.5625 -0.4375 L 6.5625 0 L 4.734375 0 L 4.734375 -0.4375 L 5.296875 -0.53125 L 5.296875 -2.265625 C 5.296875 -2.640625 5.234375 -2.898438 5.109375 -3.046875 C 4.984375 -3.203125 4.796875 -3.28125 4.546875 -3.28125 C 4.304688 -3.28125 4.113281 -3.195312 3.96875 -3.03125 C 3.820312 -2.863281 3.734375 -2.648438 3.703125 -2.390625 L 3.703125 -0.53125 L 4.28125 -0.4375 L 4.28125 0 L 2.453125 0 L 2.453125 -0.4375 L 3.015625 -0.53125 L 3.015625 -2.265625 C 3.015625 -2.617188 2.945312 -2.875 2.8125 -3.03125 C 2.6875 -3.195312 2.5 -3.28125 2.25 -3.28125 C 2.039062 -3.28125 1.867188 -3.238281 1.734375 -3.15625 C 1.597656 -3.070312 1.492188 -2.953125 1.421875 -2.796875 L 1.421875 -0.53125 L 2 -0.4375 L 2 0 L 0.171875 0 Z M 0.171875 -0.4375 "/></g></g></g><g fill="#ffffff" fill-opacity="1"><g transform="translate(38.768433, 18.880278)"><g><path d="M 2.765625 0 C 2.742188 -0.101562 2.726562 -0.191406 2.71875 -0.265625 C 2.707031 -0.347656 2.703125 -0.429688 2.703125 -0.515625 C 2.566406 -0.347656 2.398438 -0.207031 2.203125 -0.09375 C 2.003906 0.0195312 1.789062 0.078125 1.5625 0.078125 C 1.164062 0.078125 0.863281 -0.015625 0.65625 -0.203125 C 0.457031 -0.398438 0.359375 -0.675781 0.359375 -1.03125 C 0.359375 -1.382812 0.503906 -1.65625 0.796875 -1.84375 C 1.085938 -2.039062 1.484375 -2.140625 1.984375 -2.140625 L 2.6875 -2.140625 L 2.6875 -2.578125 C 2.6875 -2.804688 2.617188 -2.984375 2.484375 -3.109375 C 2.347656 -3.234375 2.15625 -3.296875 1.90625 -3.296875 C 1.726562 -3.296875 1.570312 -3.273438 1.4375 -3.234375 C 1.3125 -3.191406 1.207031 -3.128906 1.125 -3.046875 L 1.0625 -2.65625 L 0.53125 -2.65625 L 0.53125 -3.390625 C 0.695312 -3.523438 0.898438 -3.632812 1.140625 -3.71875 C 1.390625 -3.800781 1.660156 -3.84375 1.953125 -3.84375 C 2.378906 -3.84375 2.722656 -3.734375 2.984375 -3.515625 C 3.242188 -3.296875 3.375 -2.984375 3.375 -2.578125 L 3.375 -0.765625 C 3.375 -0.710938 3.375 -0.660156 3.375 -0.609375 C 3.382812 -0.566406 3.390625 -0.523438 3.390625 -0.484375 L 3.671875 -0.4375 L 3.671875 0 Z M 1.671875 -0.5 C 1.898438 -0.5 2.109375 -0.550781 2.296875 -0.65625 C 2.484375 -0.769531 2.613281 -0.90625 2.6875 -1.0625 L 2.6875 -1.6875 L 1.96875 -1.6875 C 1.6875 -1.6875 1.460938 -1.617188 1.296875 -1.484375 C 1.128906 -1.359375 1.046875 -1.203125 1.046875 -1.015625 C 1.046875 -0.847656 1.097656 -0.71875 1.203125 -0.625 C 1.304688 -0.539062 1.460938 -0.5 1.671875 -0.5 Z M 1.671875 -0.5 "/></g></g></g><g fill="#ffffff" fill-opacity="1"><g transform="translate(42.700721, 18.880278)"><g><path d="M 0.3125 -3.328125 L 0.3125 -3.765625 L 1.5 -3.765625 L 1.5625 -3.21875 C 1.664062 -3.414062 1.796875 -3.566406 1.953125 -3.671875 C 2.109375 -3.785156 2.289062 -3.84375 2.5 -3.84375 C 2.550781 -3.84375 2.601562 -3.835938 2.65625 -3.828125 C 2.71875 -3.816406 2.765625 -3.804688 2.796875 -3.796875 L 2.703125 -3.171875 L 2.3125 -3.1875 C 2.125 -3.1875 1.96875 -3.144531 1.84375 -3.0625 C 1.726562 -2.976562 1.632812 -2.859375 1.5625 -2.703125 L 1.5625 -0.53125 L 2.140625 -0.4375 L 2.140625 0 L 0.3125 0 L 0.3125 -0.4375 L 0.875 -0.53125 L 0.875 -3.234375 Z M 0.3125 -3.328125 "/></g></g></g><g fill="#ffffff" fill-opacity="1"><g transform="translate(45.653425, 18.880278)"><g><path d="M 1.515625 -4.6875 L 1.515625 -3.765625 L 2.21875 -3.765625 L 2.21875 -3.265625 L 1.515625 -3.265625 L 1.515625 -0.96875 C 1.515625 -0.789062 1.550781 -0.664062 1.625 -0.59375 C 1.695312 -0.519531 1.789062 -0.484375 1.90625 -0.484375 C 1.96875 -0.484375 2.035156 -0.488281 2.109375 -0.5 C 2.191406 -0.507812 2.253906 -0.523438 2.296875 -0.546875 L 2.40625 -0.0625 C 2.332031 -0.0195312 2.234375 0.0078125 2.109375 0.03125 C 1.984375 0.0625 1.859375 0.078125 1.734375 0.078125 C 1.453125 0.078125 1.226562 -0.00390625 1.0625 -0.171875 C 0.90625 -0.347656 0.828125 -0.613281 0.828125 -0.96875 L 0.828125 -3.265625 L 0.234375 -3.265625 L 0.234375 -3.765625 L 0.828125 -3.765625 L 0.828125 -4.6875 Z M 1.515625 -4.6875 "/></g></g></g><g fill="#42666a" fill-opacity="1"><g transform="translate(3.090014, 18.880278)"><g><path d="M 3.921875 -3.578125 L 3.40625 -3.578125 L 3.28125 -4.296875 C 3.164062 -4.390625 3.019531 -4.460938 2.84375 -4.515625 C 2.675781 -4.578125 2.476562 -4.609375 2.25 -4.609375 C 1.882812 -4.609375 1.601562 -4.53125 1.40625 -4.375 C 1.207031 -4.21875 1.109375 -4.015625 1.109375 -3.765625 C 1.109375 -3.546875 1.207031 -3.363281 1.40625 -3.21875 C 1.613281 -3.070312 1.9375 -2.941406 2.375 -2.828125 C 2.914062 -2.691406 3.320312 -2.492188 3.59375 -2.234375 C 3.875 -1.984375 4.015625 -1.664062 4.015625 -1.28125 C 4.015625 -0.875 3.847656 -0.546875 3.515625 -0.296875 C 3.179688 -0.046875 2.742188 0.078125 2.203125 0.078125 C 1.816406 0.078125 1.46875 0.015625 1.15625 -0.109375 C 0.851562 -0.242188 0.609375 -0.414062 0.421875 -0.625 L 0.421875 -1.5625 L 0.9375 -1.5625 L 1.078125 -0.84375 C 1.203125 -0.726562 1.351562 -0.632812 1.53125 -0.5625 C 1.71875 -0.5 1.941406 -0.46875 2.203125 -0.46875 C 2.546875 -0.46875 2.816406 -0.539062 3.015625 -0.6875 C 3.222656 -0.832031 3.328125 -1.03125 3.328125 -1.28125 C 3.328125 -1.507812 3.238281 -1.703125 3.0625 -1.859375 C 2.882812 -2.015625 2.578125 -2.148438 2.140625 -2.265625 C 1.597656 -2.390625 1.175781 -2.578125 0.875 -2.828125 C 0.570312 -3.078125 0.421875 -3.390625 0.421875 -3.765625 C 0.421875 -4.160156 0.585938 -4.488281 0.921875 -4.75 C 1.265625 -5.019531 1.707031 -5.15625 2.25 -5.15625 C 2.601562 -5.15625 2.925781 -5.09375 3.21875 -4.96875 C 3.507812 -4.84375 3.742188 -4.691406 3.921875 -4.515625 Z M 3.921875 -3.578125 "/></g></g></g><g fill="#42666a" fill-opacity="1"><g transform="translate(7.437146, 18.880278)"><g><path d="M 0.3125 -0.4375 L 0.875 -0.53125 L 0.875 -3.234375 L 0.3125 -3.328125 L 0.3125 -3.765625 L 1.5625 -3.765625 L 1.5625 -0.53125 L 2.140625 -0.4375 L 2.140625 0 L 0.3125 0 Z M 1.5625 -4.734375 L 0.875 -4.734375 L 0.875 -5.4375 L 1.5625 -5.4375 Z M 1.5625 -4.734375 "/></g></g></g><g fill="#42666a" fill-opacity="1"><g transform="translate(9.783273, 18.880278)"><g><path d="M 0.171875 -0.4375 L 0.75 -0.53125 L 0.75 -3.234375 L 0.171875 -3.328125 L 0.171875 -3.765625 L 1.359375 -3.765625 L 1.40625 -3.28125 C 1.53125 -3.457031 1.6875 -3.59375 1.875 -3.6875 C 2.0625 -3.789062 2.28125 -3.84375 2.53125 -3.84375 C 2.78125 -3.84375 2.992188 -3.785156 3.171875 -3.671875 C 3.359375 -3.554688 3.5 -3.378906 3.59375 -3.140625 C 3.707031 -3.359375 3.859375 -3.53125 4.046875 -3.65625 C 4.242188 -3.78125 4.472656 -3.84375 4.734375 -3.84375 C 5.128906 -3.84375 5.4375 -3.707031 5.65625 -3.4375 C 5.875 -3.175781 5.984375 -2.78125 5.984375 -2.25 L 5.984375 -0.53125 L 6.5625 -0.4375 L 6.5625 0 L 4.734375 0 L 4.734375 -0.4375 L 5.296875 -0.53125 L 5.296875 -2.265625 C 5.296875 -2.640625 5.234375 -2.898438 5.109375 -3.046875 C 4.984375 -3.203125 4.796875 -3.28125 4.546875 -3.28125 C 4.304688 -3.28125 4.113281 -3.195312 3.96875 -3.03125 C 3.820312 -2.863281 3.734375 -2.648438 3.703125 -2.390625 L 3.703125 -0.53125 L 4.28125 -0.4375 L 4.28125 0 L 2.453125 0 L 2.453125 -0.4375 L 3.015625 -0.53125 L 3.015625 -2.265625 C 3.015625 -2.617188 2.945312 -2.875 2.8125 -3.03125 C 2.6875 -3.195312 2.5 -3.28125 2.25 -3.28125 C 2.039062 -3.28125 1.867188 -3.238281 1.734375 -3.15625 C 1.597656 -3.070312 1.492188 -2.953125 1.421875 -2.796875 L 1.421875 -0.53125 L 2 -0.4375 L 2 0 L 0.171875 0 Z M 0.171875 -0.4375 "/></g></g></g><g fill="#42666a" fill-opacity="1"><g transform="translate(16.528822, 18.880278)"><g><path d="M 0.234375 1 L 0.796875 0.90625 L 0.796875 -3.234375 L 0.234375 -3.328125 L 0.234375 -3.765625 L 1.390625 -3.765625 L 1.453125 -3.3125 C 1.578125 -3.488281 1.726562 -3.617188 1.90625 -3.703125 C 2.082031 -3.796875 2.289062 -3.84375 2.53125 -3.84375 C 3 -3.84375 3.363281 -3.65625 3.625 -3.28125 C 3.882812 -2.914062 4.015625 -2.425781 4.015625 -1.8125 L 4.015625 -1.75 C 4.015625 -1.195312 3.882812 -0.753906 3.625 -0.421875 C 3.363281 -0.0859375 3.003906 0.078125 2.546875 0.078125 C 2.304688 0.078125 2.097656 0.0390625 1.921875 -0.03125 C 1.753906 -0.113281 1.609375 -0.234375 1.484375 -0.390625 L 1.484375 0.90625 L 2.046875 1 L 2.046875 1.453125 L 0.234375 1.453125 Z M 3.3125 -1.8125 C 3.3125 -2.25 3.226562 -2.601562 3.0625 -2.875 C 2.894531 -3.144531 2.648438 -3.28125 2.328125 -3.28125 C 2.128906 -3.28125 1.957031 -3.234375 1.8125 -3.140625 C 1.675781 -3.054688 1.566406 -2.941406 1.484375 -2.796875 L 1.484375 -0.953125 C 1.566406 -0.796875 1.675781 -0.675781 1.8125 -0.59375 C 1.957031 -0.507812 2.128906 -0.46875 2.328125 -0.46875 C 2.648438 -0.46875 2.894531 -0.582031 3.0625 -0.8125 C 3.226562 -1.050781 3.3125 -1.363281 3.3125 -1.75 Z M 3.3125 -1.8125 "/></g></g></g><g fill="#42666a" fill-opacity="1"><g transform="translate(20.851549, 18.880278)"><g><path d="M 0.21875 -5 L 0.21875 -5.4375 L 1.46875 -5.4375 L 1.46875 -0.53125 L 2.046875 -0.4375 L 2.046875 0 L 0.21875 0 L 0.21875 -0.4375 L 0.78125 -0.53125 L 0.78125 -4.90625 Z M 0.21875 -5 "/></g></g></g><g fill="#42666a" fill-opacity="1"><g transform="translate(23.100067, 18.880278)"><g><path d="M 3.890625 -3.328125 L 3.5625 -3.28125 L 2.125 0.578125 C 2.03125 0.828125 1.890625 1.046875 1.703125 1.234375 C 1.523438 1.429688 1.285156 1.53125 0.984375 1.53125 C 0.929688 1.53125 0.863281 1.519531 0.78125 1.5 C 0.695312 1.488281 0.628906 1.476562 0.578125 1.46875 L 0.65625 0.921875 C 0.632812 0.921875 0.671875 0.921875 0.765625 0.921875 C 0.867188 0.929688 0.929688 0.9375 0.953125 0.9375 C 1.097656 0.9375 1.21875 0.875 1.3125 0.75 C 1.40625 0.625 1.484375 0.476562 1.546875 0.3125 L 1.71875 -0.078125 L 0.46875 -3.28125 L 0.125 -3.328125 L 0.125 -3.765625 L 1.640625 -3.765625 L 1.640625 -3.328125 L 1.21875 -3.265625 L 1.875 -1.390625 L 2 -0.921875 L 2.015625 -0.921875 L 2.796875 -3.265625 L 2.375 -3.328125 L 2.375 -3.765625 L 3.890625 -3.765625 Z M 3.890625 -3.328125 "/></g></g></g><g fill="#42666a" fill-opacity="1"><g transform="translate(31.963381, 24.405094)"><g><path d="M 0.53125 -1.828125 L 1.125 -0.34375 L 1.71875 -1.828125 L 2.03125 -1.828125 L 2.03125 0 L 1.796875 0 L 1.796875 -0.71875 L 1.8125 -1.484375 L 1.21875 0 L 1.03125 0 L 0.4375 -1.484375 L 0.453125 -0.71875 L 0.453125 0 L 0.21875 0 L 0.21875 -1.828125 Z M 0.53125 -1.828125 "/></g></g></g><g fill="#42666a" fill-opacity="1"><g transform="translate(34.340447, 24.405094)"><g><path d="M 1.21875 -0.484375 L 0.453125 -0.484375 L 0.28125 0 L 0.03125 0 L 0.734375 -1.828125 L 0.953125 -1.828125 L 1.640625 0 L 1.40625 0 Z M 0.53125 -0.671875 L 1.15625 -0.671875 L 0.84375 -1.53125 Z M 0.53125 -0.671875 "/></g></g></g><g fill="#42666a" fill-opacity="1"><g transform="translate(36.149167, 24.405094)"><g><path d="M 0.890625 -0.734375 L 0.453125 -0.734375 L 0.453125 0 L 0.21875 0 L 0.21875 -1.828125 L 0.8125 -1.828125 C 1.019531 -1.828125 1.179688 -1.78125 1.296875 -1.6875 C 1.410156 -1.59375 1.46875 -1.457031 1.46875 -1.28125 C 1.46875 -1.164062 1.4375 -1.066406 1.375 -0.984375 C 1.3125 -0.898438 1.222656 -0.835938 1.109375 -0.796875 L 1.546875 -0.015625 L 1.546875 0 L 1.28125 0 Z M 0.453125 -0.9375 L 0.828125 -0.9375 C 0.941406 -0.9375 1.035156 -0.96875 1.109375 -1.03125 C 1.179688 -1.09375 1.21875 -1.175781 1.21875 -1.28125 C 1.21875 -1.394531 1.179688 -1.476562 1.109375 -1.53125 C 1.046875 -1.59375 0.953125 -1.628906 0.828125 -1.640625 L 0.453125 -1.640625 Z M 0.453125 -0.9375 "/></g></g></g><g fill="#42666a" fill-opacity="1"><g transform="translate(37.863581, 24.405094)"><g><path d="M 1.484375 -1.640625 L 0.890625 -1.640625 L 0.890625 0 L 0.65625 0 L 0.65625 -1.640625 L 0.0625 -1.640625 L 0.0625 -1.828125 L 1.484375 -1.828125 Z M 1.484375 -1.640625 "/></g></g></g><g fill="#42666a" fill-opacity="1"><g transform="translate(39.528957, 24.405094)"><g><path d="M 0.46875 0 L 0.234375 0 L 0.234375 -1.828125 L 0.46875 -1.828125 Z M 0.46875 0 "/></g></g></g><g fill="#42666a" fill-opacity="1"><g transform="translate(40.35816, 24.405094)"><g><path d="M 1.625 0 L 1.375 0 L 0.453125 -1.40625 L 0.453125 0 L 0.21875 0 L 0.21875 -1.828125 L 0.453125 -1.828125 L 1.375 -0.421875 L 1.375 -1.828125 L 1.625 -1.828125 Z M 1.625 0 "/></g></g></g><g fill="#42666a" fill-opacity="1"><g transform="translate(42.322798, 24.405094)"><g><path d="M 1.21875 -0.484375 L 0.453125 -0.484375 L 0.28125 0 L 0.03125 0 L 0.734375 -1.828125 L 0.953125 -1.828125 L 1.640625 0 L 1.40625 0 Z M 0.53125 -0.671875 L 1.15625 -0.671875 L 0.84375 -1.53125 Z M 0.53125 -0.671875 "/></g></g></g><g fill="#42666a" fill-opacity="1"><g transform="translate(44.131517, 24.405094)"><g/></g></g><g fill="#42666a" fill-opacity="1"><g transform="translate(44.897849, 24.405094)"><g><path d="M 0.75 -0.8125 C 0.539062 -0.875 0.390625 -0.945312 0.296875 -1.03125 C 0.203125 -1.125 0.15625 -1.234375 0.15625 -1.359375 C 0.15625 -1.503906 0.210938 -1.625 0.328125 -1.71875 C 0.441406 -1.8125 0.59375 -1.859375 0.78125 -1.859375 C 0.90625 -1.859375 1.015625 -1.832031 1.109375 -1.78125 C 1.210938 -1.738281 1.289062 -1.671875 1.34375 -1.578125 C 1.394531 -1.492188 1.421875 -1.398438 1.421875 -1.296875 L 1.1875 -1.296875 C 1.1875 -1.410156 1.148438 -1.5 1.078125 -1.5625 C 1.003906 -1.625 0.90625 -1.65625 0.78125 -1.65625 C 0.664062 -1.65625 0.570312 -1.628906 0.5 -1.578125 C 0.4375 -1.523438 0.40625 -1.453125 0.40625 -1.359375 C 0.40625 -1.285156 0.4375 -1.222656 0.5 -1.171875 C 0.5625 -1.117188 0.664062 -1.070312 0.8125 -1.03125 C 0.96875 -0.988281 1.085938 -0.941406 1.171875 -0.890625 C 1.265625 -0.835938 1.332031 -0.773438 1.375 -0.703125 C 1.414062 -0.640625 1.4375 -0.5625 1.4375 -0.46875 C 1.4375 -0.320312 1.375 -0.203125 1.25 -0.109375 C 1.132812 -0.015625 0.984375 0.03125 0.796875 0.03125 C 0.671875 0.03125 0.550781 0.00390625 0.4375 -0.046875 C 0.332031 -0.0976562 0.25 -0.164062 0.1875 -0.25 C 0.125 -0.332031 0.09375 -0.425781 0.09375 -0.53125 L 0.34375 -0.53125 C 0.34375 -0.414062 0.382812 -0.328125 0.46875 -0.265625 C 0.550781 -0.203125 0.660156 -0.171875 0.796875 -0.171875 C 0.921875 -0.171875 1.015625 -0.195312 1.078125 -0.25 C 1.148438 -0.300781 1.1875 -0.367188 1.1875 -0.453125 C 1.1875 -0.546875 1.15625 -0.617188 1.09375 -0.671875 C 1.03125 -0.722656 0.914062 -0.769531 0.75 -0.8125 Z M 0.75 -0.8125 "/></g></g></g><g fill="#42666a" fill-opacity="1"><g transform="translate(46.554424, 24.405094)"><g><path d="M 1.5625 -0.578125 C 1.539062 -0.390625 1.46875 -0.238281 1.34375 -0.125 C 1.226562 -0.0195312 1.066406 0.03125 0.859375 0.03125 C 0.648438 0.03125 0.476562 -0.046875 0.34375 -0.203125 C 0.21875 -0.359375 0.15625 -0.566406 0.15625 -0.828125 L 0.15625 -1 C 0.15625 -1.175781 0.179688 -1.328125 0.234375 -1.453125 C 0.296875 -1.585938 0.382812 -1.6875 0.5 -1.75 C 0.613281 -1.820312 0.742188 -1.859375 0.890625 -1.859375 C 1.078125 -1.859375 1.226562 -1.800781 1.34375 -1.6875 C 1.46875 -1.582031 1.539062 -1.4375 1.5625 -1.25 L 1.3125 -1.25 C 1.289062 -1.394531 1.242188 -1.5 1.171875 -1.5625 C 1.109375 -1.625 1.015625 -1.65625 0.890625 -1.65625 C 0.734375 -1.65625 0.609375 -1.597656 0.515625 -1.484375 C 0.429688 -1.367188 0.390625 -1.207031 0.390625 -1 L 0.390625 -0.828125 C 0.390625 -0.628906 0.429688 -0.46875 0.515625 -0.34375 C 0.597656 -0.226562 0.710938 -0.171875 0.859375 -0.171875 C 0.992188 -0.171875 1.097656 -0.203125 1.171875 -0.265625 C 1.242188 -0.328125 1.289062 -0.429688 1.3125 -0.578125 Z M 1.5625 -0.578125 "/></g></g></g><g fill="#42666a" fill-opacity="1"><g transform="translate(48.359371, 24.405094)"><g><path d="M 1.625 0 L 1.375 0 L 1.375 -0.84375 L 0.453125 -0.84375 L 0.453125 0 L 0.21875 0 L 0.21875 -1.828125 L 0.453125 -1.828125 L 0.453125 -1.046875 L 1.375 -1.046875 L 1.375 -1.828125 L 1.625 -1.828125 Z M 1.625 0 "/></g></g></g><g fill="#42666a" fill-opacity="1"><g transform="translate(50.324009, 24.405094)"><g><path d="M 1.625 -0.859375 C 1.625 -0.679688 1.59375 -0.523438 1.53125 -0.390625 C 1.46875 -0.253906 1.378906 -0.148438 1.265625 -0.078125 C 1.160156 -0.00390625 1.035156 0.03125 0.890625 0.03125 C 0.742188 0.03125 0.613281 -0.00390625 0.5 -0.078125 C 0.394531 -0.148438 0.3125 -0.25 0.25 -0.375 C 0.1875 -0.507812 0.15625 -0.664062 0.15625 -0.84375 L 0.15625 -0.96875 C 0.15625 -1.144531 0.179688 -1.300781 0.234375 -1.4375 C 0.296875 -1.570312 0.382812 -1.675781 0.5 -1.75 C 0.613281 -1.820312 0.742188 -1.859375 0.890625 -1.859375 C 1.035156 -1.859375 1.160156 -1.820312 1.265625 -1.75 C 1.378906 -1.675781 1.46875 -1.570312 1.53125 -1.4375 C 1.59375 -1.300781 1.625 -1.144531 1.625 -0.96875 Z M 1.375 -0.96875 C 1.375 -1.1875 1.332031 -1.351562 1.25 -1.46875 C 1.164062 -1.59375 1.046875 -1.65625 0.890625 -1.65625 C 0.734375 -1.65625 0.609375 -1.59375 0.515625 -1.46875 C 0.429688 -1.351562 0.390625 -1.191406 0.390625 -0.984375 L 0.390625 -0.859375 C 0.390625 -0.648438 0.429688 -0.484375 0.515625 -0.359375 C 0.609375 -0.242188 0.734375 -0.1875 0.890625 -0.1875 C 1.046875 -0.1875 1.164062 -0.238281 1.25 -0.34375 C 1.332031 -0.457031 1.375 -0.625 1.375 -0.84375 Z M 1.375 -0.96875 "/></g></g></g><g fill="#42666a" fill-opacity="1"><g transform="translate(52.223262, 24.405094)"><g><path d="M 0.453125 -0.203125 L 1.328125 -0.203125 L 1.328125 0 L 0.21875 0 L 0.21875 -1.828125 L 0.453125 -1.828125 Z M 0.453125 -0.203125 "/></g></g></g><g fill="#42666a" fill-opacity="1"><g transform="translate(53.73775, 24.405094)"><g><path d="M 0.390625 -0.203125 L 1.4375 -0.203125 L 1.4375 0 L 0.109375 0 L 0.109375 -0.1875 L 1.109375 -1.640625 L 0.125 -1.640625 L 0.125 -1.828125 L 1.40625 -1.828125 L 1.40625 -1.65625 Z M 0.390625 -0.203125 "/></g></g></g><g fill="#42666a" fill-opacity="1"><g transform="translate(48.976746, 19.33776)"><g><path d="M 1.703125 -2.015625 L 0.171875 -2.015625 L 0.171875 -2.578125 L 1.703125 -2.578125 Z M 1.703125 -2.015625 "/></g></g></g><g fill="#42666a" fill-opacity="1"><g transform="translate(50.863002, 19.33776)"><g><path d="M 1.296875 0 L 0.609375 0 L 0.609375 -5.40625 L 1.296875 -5.40625 Z M 1.296875 0 "/></g></g></g><g fill="#42666a" fill-opacity="1"><g transform="translate(52.76411, 19.33776)"><g><path d="M 3.75 -4.828125 L 2.328125 -4.828125 L 2.328125 0 L 1.640625 0 L 1.640625 -4.828125 L 0.21875 -4.828125 L 0.21875 -5.40625 L 3.75 -5.40625 Z M 3.75 -4.828125 "/></g></g></g></svg>